<svg width="250" height="190" viewBox="0 0 250 190" fill="none" xmlns="http://www.w3.org/2000/svg">
<mask id="mask0_35:642" style="mask-type:alpha" maskUnits="userSpaceOnUse" x="5" y="2" width="240" height="185">
<path d="M5 12C5 6.47716 9.47715 2 15 2H235C240.523 2 245 6.47715 245 12V177C245 182.523 240.523 187 235 187H15C9.47716 187 5 182.523 5 177V12Z" fill="#9A9DFF"/>
</mask>
<g mask="url(#mask0_35:642)">
<path d="M64.1232 59.9467V82.2875L83.4699 93.4637L102.822 82.2875V59.9467L83.4699 48.7763L64.1232 59.9467Z" fill="#1F1F1F" fill-opacity="0.1"/>
<path d="M230.217 69.6661V85.892L244.272 94.0049L258.321 85.892V69.6661L244.272 61.5531L230.217 69.6661Z" fill="#1F1F1F" fill-opacity="0.1"/>
<path d="M186.664 123.987V158.903L216.904 176.361L247.151 158.903V123.987L216.904 106.523L186.664 123.987Z" fill="#1F1F1F" fill-opacity="0.1"/>
<path d="M94.6404 149.67V175.937L117.39 189.071L140.14 175.937V149.67L117.39 136.536L94.6404 149.67Z" fill="#1F1F1F" fill-opacity="0.1"/>
<path d="M-14.4282 96.3181V115.481L2.16616 125.062L18.7663 115.481V96.3181L2.16616 86.7311L-14.4282 96.3181Z" fill="#1F1F1F" fill-opacity="0.1"/>
<path d="M34.3777 62.3247V69.8158L40.8611 73.5642L47.3503 69.8158V62.3247L40.8611 58.5821L34.3777 62.3247Z" fill="#1F1F1F" fill-opacity="0.1"/>
</g>
</svg>
